<svg width="448" height="324" viewBox="0 0 448 324" fill="none" xmlns="http://www.w3.org/2000/svg">
<path d="M119.833 99.5L224 172.417L328.167 99.5" stroke="black" stroke-width="31.25" stroke-linecap="round" stroke-linejoin="round"/>
<path d="M15.6666 266.167V57.8334C15.6666 46.7827 20.0565 36.1846 27.8705 28.3706C35.6845 20.5566 46.2826 16.1667 57.3333 16.1667H390.667C401.717 16.1667 412.315 20.5566 420.129 28.3706C427.943 36.1846 432.333 46.7827 432.333 57.8334V266.167C432.333 277.217 427.943 287.816 420.129 295.63C412.315 303.444 401.717 307.833 390.667 307.833H57.3333C46.2826 307.833 35.6845 303.444 27.8705 295.63C20.0565 287.816 15.6666 277.217 15.6666 266.167Z" stroke="black" stroke-width="31.25"/>
</svg>
