<svg width="408" height="387" viewBox="0 0 408 387" fill="none" xmlns="http://www.w3.org/2000/svg">
<path d="M379.587 326.676L390.608 337.76L379.566 326.676H379.587ZM116.962 281.76L127.962 270.676L116.941 281.76H116.962ZM31.0036 61.0932L20.0036 50.0307L31.0244 61.114L31.0036 61.0932ZM279.712 264.343L289.233 254.906L267.17 232.739L257.712 242.176L279.712 264.343ZM321.087 250.947L360.899 272.593L375.795 245.135L336.004 223.51L321.087 250.947ZM368.545 315.593L338.962 345.031L360.983 367.176L390.566 337.76L368.545 315.593ZM320.92 354.489C290.712 357.322 212.587 354.801 127.962 270.676L105.92 292.822C198.254 384.635 286.149 389.135 323.837 385.614L320.899 354.489H320.92ZM127.962 270.676C47.3161 190.468 33.9411 123.031 32.2744 93.7598L1.06611 95.5307C3.14945 132.364 19.712 207.114 105.92 292.822L127.962 270.676ZM156.608 141.927L162.587 135.968L140.587 113.822L134.608 119.76L156.629 141.906L156.608 141.927ZM167.337 60.239L141.087 25.1557L116.066 43.9057L142.316 78.9682L167.337 60.239ZM52.7328 17.5098L20.0244 50.0098L42.0661 72.1765L74.7536 39.6765L52.7328 17.5098ZM145.608 130.843C134.566 119.76 134.566 119.76 134.566 119.801H134.524L134.462 119.885C133.478 120.889 132.592 121.984 131.816 123.156C130.691 124.822 129.462 127.01 128.42 129.781C125.883 136.933 125.252 144.623 126.587 152.093C129.379 170.114 141.795 193.927 173.587 225.552L195.629 203.385C165.858 173.802 158.774 155.801 157.462 147.301C156.837 143.26 157.483 141.26 157.67 140.801C157.774 140.51 157.816 140.489 157.67 140.676C157.487 140.965 157.277 141.237 157.045 141.489L156.837 141.697C156.77 141.762 156.7 141.825 156.629 141.885L145.587 130.843H145.608ZM173.587 225.552C205.399 257.177 229.337 269.51 247.379 272.26C256.608 273.676 264.045 272.552 269.691 270.447C272.848 269.279 275.801 267.62 278.441 265.531C278.8 265.231 279.147 264.918 279.483 264.593L279.629 264.468L279.691 264.406L279.712 264.364C279.712 264.364 279.733 264.343 268.712 253.26C257.67 242.177 257.733 242.156 257.733 242.156L257.774 242.114L257.816 242.072L257.941 241.968L258.149 241.76C258.4 241.535 258.664 241.326 258.941 241.135C259.149 240.989 259.087 241.052 258.795 241.177C258.274 241.364 256.233 242.01 252.129 241.385C243.504 240.051 225.379 232.968 195.629 203.385L173.587 225.552ZM141.087 25.1348C119.837 -3.19851 78.0869 -7.69851 52.7328 17.5098L74.7536 39.6765C85.8369 28.6557 105.504 29.8015 116.066 43.9057L141.066 25.1348H141.087ZM32.2953 93.7807C31.8786 86.5723 35.1911 79.0307 42.0661 72.1973L20.0036 50.0307C8.81612 61.1557 0.00361291 76.9057 1.06611 95.5307L32.2953 93.7807ZM338.962 345.031C333.254 350.739 327.087 353.947 320.941 354.51L323.837 385.614C339.149 384.177 351.67 376.468 361.004 367.197L338.962 345.031ZM162.587 135.968C183.108 115.572 184.629 83.3432 167.358 60.2598L142.337 78.989C150.733 90.2182 149.483 104.947 140.566 113.843L162.587 135.968ZM360.92 272.614C377.941 281.864 380.587 303.656 368.566 315.614L390.608 337.76C418.524 309.989 409.92 263.677 375.816 245.156L360.92 272.614ZM289.233 254.927C297.233 246.968 310.108 245.01 321.108 250.968L336.024 223.531C313.441 211.239 285.441 214.635 267.191 232.76L289.233 254.927Z" fill="black"/>
</svg>
